<svg width="29" height="49" viewBox="0 0 29 49" fill="none" xmlns="http://www.w3.org/2000/svg">
<path d="M24.0572 2.69108C23.8179 2.55192 23.5117 2.63542 23.374 2.87419C23.2359 3.11345 23.3179 3.41911 23.5572 3.5573C25.9107 4.91569 27.2085 6.69157 27.2114 8.5573C27.2147 10.7212 25.4823 12.4308 23.6245 13.5109C20.9849 15.0447 17.6229 15.6884 14.5449 15.6883C9.33489 15.6881 1.79247 13.354 1.7947 8.51018C1.79568 6.66173 3.0715 4.90288 5.38821 3.55632C9.03176 1.44011 14.4966 0.800948 19.3076 1.9279C19.5796 1.98942 19.8452 1.8239 19.9087 1.55534C19.9717 1.2863 19.8047 1.01726 19.5362 0.954268C14.4868 -0.229814 8.73733 0.45378 4.88625 2.69206C2.25802 4.21916 0.808556 6.27574 0.796777 8.48515C0.796593 8.48991 0.793969 8.49388 0.793969 8.4987C0.793969 8.5994 0.78867 11.1228 0.788598 11.0221C0.785058 12.1751 1.17904 13.2853 1.92092 14.3041L1.88589 24.9741C1.17623 25.9825 0.791528 27.0838 0.791528 28.175C0.791528 28.1847 0.793847 28.1941 0.793908 28.2038L0.788598 30.6877C0.782128 32.8119 2.11758 34.7914 4.53567 36.3105V39.9803C4.02987 40.0371 3.54482 40.1808 3.14553 40.4128C1.9263 41.121 1.9183 42.4477 3.15725 43.1637C4.21433 43.7739 5.86722 43.7792 6.92043 43.1667C7.51565 42.8215 7.8428 42.3327 7.84182 41.7907C7.84133 41.2541 7.501 40.7502 6.90872 40.4079C6.51351 40.1798 6.035 40.0375 5.53567 39.9805V36.8788C8.03469 38.1605 11.1477 38.8212 14.2827 38.8554V44.9823C13.7938 45.0427 13.3258 45.1837 12.939 45.4084C11.7167 46.1194 11.7147 47.4447 12.9512 48.1593C14.0083 48.7695 15.6612 48.7748 16.7144 48.1623C17.3096 47.8171 17.6367 47.3283 17.6358 46.7863C17.6353 46.2497 17.2949 45.7458 16.7027 45.4035C16.2951 45.1682 15.7988 45.0263 15.2827 44.9731V38.842C18.4621 38.7417 21.586 38.0038 24.021 36.6169V39.9803C23.5152 40.0371 23.0302 40.1808 22.6309 40.4128C21.4066 41.1244 21.4085 42.4515 22.6426 43.1637C23.6997 43.7739 25.3526 43.7792 26.4058 43.1667C27.001 42.8215 27.3281 42.3327 27.3272 41.7907C27.3267 41.2541 26.9864 40.7502 26.3941 40.4079C25.9989 40.1798 25.5203 40.0375 25.021 39.9805V35.9866C27.0766 34.5361 28.2001 32.7105 28.2061 30.7653L28.2114 28.2449V28.2433C28.2114 28.2427 28.2111 28.2411 28.2111 28.2405C28.2102 27.0904 27.8172 25.987 27.0663 24.9538L27.101 14.3126C27.8195 13.3147 28.2026 12.2278 28.2061 11.0998L28.2114 8.57732C28.2114 8.57524 28.2103 8.57255 28.2103 8.57048C28.2103 8.56554 28.2114 8.56077 28.2114 8.55583C28.208 6.31853 26.7329 4.23552 24.0572 2.69108ZM26.0287 15.5013C26.0498 15.482 26.076 15.4645 26.0967 15.445C26.0922 16.8414 26.0721 23.1304 26.0615 26.4123C26.0501 28.3696 24.5032 29.9029 22.8035 30.8941L22.8108 28.1525L23.4507 27.8039C23.6123 27.716 23.7124 27.5466 23.7114 27.3625L23.6817 21.4528C23.6807 21.276 23.5869 21.1134 23.4346 21.0241C23.2822 20.9347 23.0943 20.9323 22.94 21.0177L22.8341 21.0762L22.8447 17.5436C22.9581 17.4924 23.0731 17.4435 23.1842 17.39C24.2103 16.9037 25.195 16.2683 26.0287 15.5013ZM27.0026 27.0934C27.0072 27.0633 27.0171 27.0342 27.021 27.0041C27.5144 28.5864 27.0075 30.0831 25.9239 31.328C25.2683 32.068 24.4599 32.6823 23.6201 33.173C18.6284 36.0768 10.4732 36.0759 5.43948 33.1711C4.44003 32.5997 3.34726 31.7326 2.67971 30.7765C1.89838 29.6703 1.58164 28.3902 1.93997 27.0954C1.9407 27.1001 1.94247 27.1047 1.94326 27.1095C1.9515 27.1601 1.96841 27.2093 1.97823 27.2598C2.43375 29.591 4.55033 31.2852 6.71359 32.2906C8.90389 33.3132 11.5991 33.876 14.4389 33.8849C14.4396 33.8849 14.4408 33.8849 14.4414 33.8849C14.4671 33.8849 14.4924 33.8849 14.5176 33.8849C18.3639 33.8849 23.2107 32.7194 25.6871 29.8196C26.3492 29.0447 26.8462 28.1251 27.0026 27.0934ZM6.16409 17.5214L6.15402 20.7002L5.96194 20.5954C5.80715 20.5124 5.62063 20.5153 5.4678 20.6037C5.31643 20.6935 5.22268 20.8561 5.22219 21.0324L5.19875 26.9401C5.19827 27.1237 5.29788 27.2931 5.45901 27.381L6.12087 27.7422L6.11282 30.8464C4.03079 29.621 2.88137 28.0302 2.88137 26.3551L2.91702 15.4259C3.87006 16.3128 4.98326 16.9857 6.16409 17.5214ZM21.8435 17.9575L21.8324 21.6299L21.2393 21.9577C21.0796 22.0461 20.981 22.2145 20.9815 22.3967L21.0015 28.2966C21.0023 28.574 21.2281 28.7951 21.5015 28.7951C21.5835 28.7951 21.6656 28.7751 21.7403 28.7345L21.8093 28.697L21.8022 31.3909C19.5797 32.4274 17.3381 32.8083 14.9438 32.8607L14.9592 29.4806H15.7022C15.9785 29.4806 16.2022 29.257 16.2022 28.9806V22.3146C16.2022 22.0383 15.9785 21.8146 15.7022 21.8146H14.9833L14.9931 19.1844C17.2729 19.1406 19.6624 18.768 21.8435 17.9575ZM21.9986 27.4562L21.9824 22.6896L22.6861 22.3005L22.71 27.0685L21.9986 27.4562ZM6.92825 22.2619L6.9092 27.0329L6.19973 26.6462L6.21877 21.8752L6.92825 22.2619ZM7.16604 28.3127C7.32469 28.3982 7.50942 28.3924 7.66018 28.3044C7.81155 28.2145 7.9053 28.0519 7.90579 27.8757L7.92922 21.9679C7.92971 21.7843 7.8301 21.6149 7.66897 21.527L7.15231 21.245L7.1628 17.9373C9.34663 18.7545 11.7177 19.129 13.9931 19.1819L13.9833 21.8146H13.2979C13.0215 21.8146 12.7979 22.0383 12.7979 22.3146V28.9806C12.7979 29.257 13.0215 29.4806 13.2979 29.4806H13.9592L13.9437 32.8695C11.604 32.806 9.23954 32.3729 7.11147 31.3748L7.11947 28.2872L7.16604 28.3127ZM13.7979 28.4806V22.8146H14.4776C14.4785 22.8146 14.4791 22.8151 14.48 22.8151C14.4805 22.8151 14.481 22.8151 14.4815 22.8151C14.4823 22.8151 14.4831 22.8146 14.4839 22.8146H15.2022V28.4806H13.7979ZM14.0823 16.6612C14.0363 16.7362 14.0022 16.819 14.0015 16.9123L13.9968 18.1812C11.5916 18.1208 9.35874 17.7442 7.16622 16.8479L7.1708 15.4151C9.27395 16.202 11.6692 16.6139 14.0823 16.6612ZM21.8468 16.8641C19.6711 17.7564 17.3296 18.1503 14.9968 18.185L15.0015 16.9181C15.002 16.8232 14.969 16.7394 14.9235 16.6635C17.2875 16.6252 19.6172 16.2642 21.8511 15.434L21.8468 16.8641ZM1.85336 11.6859C2.84333 13.0954 4.42218 14.1847 5.9725 14.9147C6.05026 14.9513 6.134 14.9812 6.21285 15.0167C6.18679 15.0768 6.17178 15.1429 6.17141 15.2126L6.16763 16.4154C4.91597 15.7948 3.79408 15.0324 2.91177 13.9566C2.33065 13.2347 1.96401 12.4634 1.8384 11.6672C1.84286 11.6736 1.8489 11.6795 1.85336 11.6859ZM6.40872 41.2741C6.67971 41.4303 6.84182 41.6242 6.84182 41.7922C6.84231 41.9572 6.68362 42.1481 6.41799 42.3024C5.67532 42.7345 4.41067 42.7326 3.65725 42.2975C3.38967 42.1432 3.23 41.9513 3.22952 41.7843C3.22952 41.6193 3.38577 41.4299 3.64797 41.277C3.89736 41.1326 4.20992 41.0541 4.53567 41.0055V41.4836C4.53567 41.7599 4.7593 41.9836 5.03567 41.9836C5.31204 41.9836 5.53567 41.7599 5.53567 41.4836V41.006C5.85592 41.0545 6.16293 41.1321 6.40872 41.2741ZM16.2027 46.2697C16.4737 46.4259 16.6358 46.6198 16.6358 46.7878C16.6363 46.9528 16.4776 47.1437 16.2119 47.298C15.4693 47.7301 14.2046 47.7282 13.4512 47.2931C13.1831 47.1388 13.0235 46.9465 13.023 46.78C13.023 46.6149 13.1792 46.4255 13.4414 46.2726C13.679 46.1347 13.974 46.0564 14.2827 46.0058V46.5241C14.2827 46.8005 14.5064 47.0241 14.7827 47.0241C15.0591 47.0241 15.2827 46.8005 15.2827 46.5241V45.9962C15.6203 46.0424 15.945 46.1208 16.2027 46.2697ZM25.8941 41.2741C26.1651 41.4303 26.3272 41.6242 26.3272 41.7922C26.3277 41.9572 26.169 42.1481 25.9033 42.3024C25.1607 42.7345 23.896 42.7326 23.1426 42.2975C22.875 42.1432 22.7149 41.9513 22.7149 41.7843C22.7144 41.6193 22.8711 41.4299 23.1333 41.277C23.3827 41.1326 23.6953 41.0541 24.021 41.0055V41.4836C24.021 41.7599 24.2447 41.9836 24.521 41.9836C24.7974 41.9836 25.021 41.7599 25.021 41.4836V41.006C25.3413 41.0545 25.6483 41.1321 25.8941 41.2741ZM23.6192 35.6999C18.6216 38.6032 10.4644 38.6032 5.43459 35.6989C3.35012 34.4953 2.09622 32.9645 1.8384 31.3332C2.44753 32.2069 3.51279 33.2175 4.94045 34.0417C10.2471 37.1051 18.8545 37.1051 24.127 34.0407C24.9684 33.5521 26.0259 32.7395 26.6963 31.965C26.783 31.8664 26.8592 31.7651 26.9384 31.6643C27.0083 31.5745 27.0896 31.488 27.1538 31.3967C26.8926 33.0046 25.6602 34.5134 23.6192 35.6999ZM27.1538 11.7306C27.0313 12.4864 26.6864 13.2187 26.1512 13.9075C25.6472 14.4094 25.1805 15.286 22.848 16.4383L22.8516 15.2677C22.852 15.1865 22.8285 15.1127 22.7945 15.0447C23.2557 14.8387 23.7055 14.6204 24.1275 14.3752C25.4284 13.6192 26.4376 12.7322 27.1289 11.7616C27.1364 11.7511 27.1464 11.7412 27.1538 11.7306Z" fill="black"/>
<path d="M22.0436 2.80808C22.2967 2.91517 22.5909 2.79768 22.6989 2.54246C22.8063 2.28806 22.6876 1.9946 22.4332 1.88718C21.9757 1.69382 21.4928 1.5156 20.9982 1.3574C20.7335 1.27195 20.4538 1.41843 20.3698 1.68113C20.2853 1.94431 20.4303 2.22556 20.6935 2.30955C21.1598 2.45896 21.6139 2.62644 22.0436 2.80808Z" fill="black"/>
</svg>
