<svg width="376" height="303" viewBox="0 0 376 303" fill="none" xmlns="http://www.w3.org/2000/svg">
<path fill-rule="evenodd" clip-rule="evenodd" d="M173.77 62.3062C107.502 63.8742 51.014 76.1312 22.651 93.1222C8.28201 101.729 0.833008 111.932 0.833008 122.207C0.833008 127.106 2.53501 131.992 5.87601 136.698C2.51401 141.411 0.833008 146.336 0.833008 151.333C0.833008 161.887 8.72901 172.379 23.892 181.149C52.611 197.761 108.439 209.679 173.77 211.233V233.562C171.649 234.311 170.129 236.334 170.129 238.712V264.197C170.129 266.575 171.649 268.598 173.77 269.348V296.964C173.77 299.981 176.215 302.426 179.231 302.426H197.435C200.451 302.426 202.896 299.981 202.896 296.964V269.348C205.017 268.598 206.537 266.575 206.537 264.197V238.712C206.537 236.334 205.017 234.311 202.896 233.562V211.233C268.227 209.679 324.056 197.761 352.775 181.149C367.937 172.379 375.833 161.887 375.833 151.333C375.833 146.336 374.153 141.411 370.791 136.698C374.132 131.992 375.833 127.106 375.833 122.207C375.833 111.932 368.384 101.729 354.015 93.1222C325.653 76.1312 269.164 63.8742 202.896 62.3062V14.8042C202.896 6.76721 196.371 0.241211 188.333 0.241211C180.296 0.241211 173.77 6.76721 173.77 14.8042V62.3062ZM191.974 269.659H184.693V291.503H191.974V269.659ZM195.615 244.173V258.736H181.052V244.173H195.615ZM191.974 233.251V211.406H184.693V233.251H191.974ZM13.58 144.886C12.402 146.979 11.756 149.121 11.756 151.333C11.756 156 14.572 160.33 19.236 164.529C24.883 169.613 33.151 174.287 43.505 178.523C76.172 191.889 128.906 200.484 188.333 200.484C247.761 200.484 300.494 191.889 333.162 178.523C343.516 174.287 351.784 169.613 357.431 164.529C362.094 160.33 364.911 156 364.911 151.333C364.911 149.121 364.264 146.979 363.087 144.886C360.144 147.362 356.704 149.75 352.775 152.023C321.944 169.856 259.87 182.28 188.333 182.28C116.797 182.28 54.723 169.856 23.892 152.023C19.963 149.75 16.522 147.362 13.58 144.886ZM204.807 73.2792C208.152 77.1182 210.178 82.1342 210.178 87.6202V92.4702C226.771 94.3932 240.073 98.5122 246.924 103.447C251.699 106.887 253.867 110.963 253.867 114.926C253.867 119.456 250.895 124.239 244.452 128.004C233.925 134.154 212.759 138.591 188.333 138.591C163.908 138.591 142.742 134.154 132.215 128.004C125.772 124.239 122.799 119.456 122.799 114.926C122.799 110.963 124.967 106.887 129.742 103.447C136.594 98.5122 149.896 94.3932 166.489 92.4702V87.6202C166.489 82.1342 168.515 77.1182 171.86 73.2792C118.069 74.7392 71.094 83.2612 41.587 95.8182C31.836 99.9672 24.062 104.515 18.76 109.447C14.387 113.514 11.756 117.706 11.756 122.207C11.756 126.874 14.572 131.204 19.236 135.402C24.883 140.487 33.151 145.161 43.505 149.397C76.172 162.763 128.906 171.358 188.333 171.358C247.761 171.358 300.494 162.763 333.162 149.397C343.516 145.161 351.784 140.487 357.431 135.402C362.094 131.204 364.911 126.874 364.911 122.207C364.911 117.706 362.279 113.514 357.907 109.447C352.605 104.515 344.831 99.9672 335.079 95.8182C305.573 83.2612 258.598 74.7392 204.807 73.2792ZM166.489 103.462C154.865 104.878 145.156 107.375 138.902 110.63C137.316 111.455 135.986 112.312 134.979 113.234C134.338 113.819 133.722 114.275 133.722 114.926C133.722 115.584 134.348 116.044 135 116.637C136.61 118.101 138.991 119.406 141.943 120.627C152.405 124.95 169.302 127.668 188.333 127.668C207.365 127.668 224.262 124.95 234.723 120.627C237.676 119.406 240.057 118.101 241.667 116.637C242.318 116.044 242.945 115.584 242.945 114.926C242.945 114.275 242.328 113.819 241.688 113.234C240.681 112.312 239.351 111.455 237.765 110.63C231.511 107.375 221.801 104.878 210.178 103.462V114.926C210.178 117.942 207.733 120.387 204.717 120.387H171.95C168.934 120.387 166.489 117.942 166.489 114.926V103.462ZM199.256 87.6202V109.464H177.411V87.6202C177.411 81.5922 182.305 76.6972 188.333 76.6972C194.362 76.6972 199.256 81.5922 199.256 87.6202ZM191.974 66.0782V14.8042C191.974 12.7952 190.343 11.1632 188.333 11.1632C186.324 11.1632 184.693 12.7952 184.693 14.8042V66.0782C185.877 65.8792 187.093 65.7752 188.333 65.7752C189.574 65.7752 190.79 65.8792 191.974 66.0782Z" fill="black"/>
</svg>
