<svg width="376" height="331" viewBox="0 0 376 331" fill="none" xmlns="http://www.w3.org/2000/svg">
<path fill-rule="evenodd" clip-rule="evenodd" d="M173.534 16.7423C143.592 19.7033 116.244 31.5663 94.1779 49.6473L93.1529 48.6223C87.3779 42.8473 77.9999 42.8473 72.2249 48.6223C66.4489 54.3983 66.4489 63.7763 72.2249 69.5513L73.2489 70.5753C55.1649 92.6443 43.3049 119.989 40.3449 149.932H38.9299C30.7619 149.932 24.1309 156.563 24.1309 164.731C24.1309 172.899 30.7619 179.53 38.9299 179.53H40.3449C40.9269 185.432 41.8579 191.234 43.1149 196.917L1.71194 310.67C-1.02806 318.198 2.85394 326.522 10.3819 329.262C10.3829 329.262 10.3839 329.263 10.3859 329.263C14.0009 330.579 17.9909 330.405 21.4769 328.779C24.9639 327.153 27.6619 324.209 28.9779 320.594L58.9899 238.134C63.1589 245.46 67.9349 252.401 73.2489 258.886L72.2249 259.911C66.4489 265.686 66.4489 275.064 72.2249 280.84C77.9999 286.615 87.3779 286.615 93.1529 280.84L94.1779 279.815C116.247 297.899 143.592 309.759 173.534 312.72V314.134C173.534 322.302 180.166 328.933 188.333 328.933C196.501 328.933 203.132 322.302 203.132 314.134V312.72C233.075 309.758 260.423 297.896 282.489 279.815L283.513 280.84C289.289 286.615 298.667 286.615 304.442 280.84C310.217 275.064 310.217 265.686 304.442 259.911L303.418 258.886C308.731 252.404 313.506 245.463 317.676 238.134L347.689 320.594C349.005 324.209 351.703 327.153 355.189 328.779C358.676 330.405 362.666 330.579 366.281 329.263C366.282 329.263 366.284 329.262 366.285 329.262C373.813 326.522 377.695 318.198 374.955 310.67L333.552 196.917C334.808 191.24 335.738 185.436 336.322 179.53H337.737C345.905 179.53 352.536 172.899 352.536 164.731C352.536 156.563 345.905 149.932 337.737 149.932H336.322C333.361 119.989 321.498 92.6423 303.418 70.5753L304.442 69.5513C310.217 63.7763 310.217 54.3983 304.442 48.6223C298.667 42.8473 289.289 42.8473 283.513 48.6223L282.489 49.6473C260.42 31.5633 233.075 19.7033 203.132 16.7423V15.3273C203.132 7.16032 196.501 0.52832 188.333 0.52832C180.166 0.52832 173.534 7.16032 173.534 15.3273V16.7423ZM48.2489 214.744L11.9759 314.406C11.2989 316.265 12.2579 318.322 14.1169 318.998C14.1189 318.999 14.1199 318.999 14.1209 319C15.0139 319.325 15.9999 319.282 16.8609 318.88C17.7229 318.479 18.3889 317.751 18.7139 316.858L52.2409 224.744C50.7929 221.471 49.4609 218.135 48.2489 214.744ZM328.417 214.744C327.205 218.137 325.872 221.473 324.426 224.744L357.952 316.858C358.277 317.751 358.944 318.479 359.805 318.88C360.667 319.282 361.652 319.325 362.545 319C362.547 318.999 362.548 318.999 362.549 318.998C364.409 318.322 365.368 316.265 364.691 314.405L328.417 214.744ZM192.21 313.4C190.923 313.433 189.63 313.45 188.333 313.45C187.036 313.45 185.743 313.433 184.457 313.4V314.134C184.457 316.274 186.194 318.011 188.333 318.011C190.473 318.011 192.21 316.274 192.21 314.134V313.4ZM188.333 26.9343C264.386 26.9343 326.13 88.6793 326.13 164.731C326.13 240.783 264.386 302.528 188.333 302.528C112.281 302.528 50.5359 240.783 50.5359 164.731C50.5359 88.6793 112.281 26.9343 188.333 26.9343ZM188.333 37.4453C118.082 37.4453 61.0469 94.4803 61.0469 164.731C61.0469 234.982 118.082 292.017 188.333 292.017C258.584 292.017 315.619 234.982 315.619 164.731C315.619 94.4803 258.584 37.4453 188.333 37.4453ZM188.333 48.3673C252.556 48.3673 304.697 100.508 304.697 164.731C304.697 228.954 252.556 281.094 188.333 281.094C124.111 281.094 71.9699 228.954 71.9699 164.731C71.9699 100.508 124.111 48.3673 188.333 48.3673ZM80.4889 267.093L79.9479 267.634C78.4349 269.147 78.4349 271.603 79.9479 273.116C81.4609 274.629 83.9169 274.629 85.4299 273.116L85.9709 272.575C84.0959 270.795 82.2669 268.966 80.4889 267.093ZM296.178 267.093C294.397 268.968 292.568 270.797 290.695 272.575L291.236 273.116C292.749 274.629 295.206 274.629 296.719 273.116C298.232 271.603 298.232 269.147 296.719 267.634L296.178 267.093ZM228.019 159.019C206.667 159.019 189.333 176.354 189.333 197.705C189.333 219.057 206.667 236.391 228.019 236.391C249.37 236.391 266.705 219.057 266.705 197.705C266.705 176.354 249.37 159.019 228.019 159.019ZM228.019 169.941C243.342 169.941 255.782 182.382 255.782 197.705C255.782 213.028 243.342 225.469 228.019 225.469C212.695 225.469 200.255 213.028 200.255 197.705C200.255 182.382 212.695 169.941 228.019 169.941ZM337.003 160.854C337.036 162.141 337.052 163.434 337.052 164.731C337.052 166.028 337.036 167.321 337.003 168.607H337.737C339.876 168.607 341.614 166.87 341.614 164.731C341.614 162.591 339.876 160.854 337.737 160.854H337.003ZM39.6639 160.854H38.9299C36.7899 160.854 35.0529 162.591 35.0529 164.731C35.0529 166.87 36.7899 168.607 38.9299 168.607H39.6639C39.6309 167.321 39.6139 166.028 39.6139 164.731C39.6139 163.434 39.6309 162.141 39.6639 160.854ZM85.9709 56.8873L85.4299 56.3453C83.9169 54.8333 81.4609 54.8333 79.9479 56.3453C78.4349 57.8583 78.4349 60.3153 79.9479 61.8283L80.4889 62.3693C82.2699 60.4933 84.0979 58.6643 85.9709 56.8873ZM296.178 62.3693L296.719 61.8283C298.232 60.3153 298.232 57.8583 296.719 56.3453C295.206 54.8333 292.749 54.8333 291.236 56.3453L290.695 56.8873C292.571 58.6673 294.4 60.4963 296.178 62.3693ZM192.21 16.0623V15.3273C192.21 13.1883 190.473 11.4513 188.333 11.4513C186.194 11.4513 184.457 13.1883 184.457 15.3273V16.0623C185.743 16.0283 187.036 16.0123 188.333 16.0123C189.63 16.0123 190.923 16.0283 192.21 16.0623Z" fill="black"/>
</svg>
