<svg width="72" height="37" viewBox="0 0 72 37" fill="none" xmlns="http://www.w3.org/2000/svg">
<path d="M36.001 0C34.141 0 32.521 0.839998 31.561 2.1H31.501C22.681 2.4 14.941 3.66 9.361 5.52C6.541 6.48 4.26 7.5 2.64 8.76C1.02 9.96 0 11.46 0 13.08C0 14.88 1.2 16.44 3.12 17.76C4.979 19.08 7.62 20.16 10.86 21.119C16.86 22.859 24.9 24 33.839 24.119V33.959C33.839 35.16 34.799 36.18 35.999 36.18C37.198 36.18 38.159 35.16 38.159 33.959V24.18C47.098 24 55.138 22.86 61.138 21.119C64.378 20.16 67.018 19.079 68.878 17.76C70.801 16.44 72.001 14.88 72.001 13.08C72.001 11.46 70.98 9.96 69.36 8.76C67.74 7.5 65.461 6.48 62.64 5.52C57.06 3.66 49.32 2.4 40.5 2.1H40.439C39.48 0.839998 37.86 0 36.001 0ZM36.001 1.62C38.101 1.62 39.721 2.94 39.841 4.38C39.901 4.8 40.141 5.1 40.561 5.16C42.841 5.46 44.701 6 45.961 6.66C46.561 6.96 47.041 7.26 47.28 7.56C47.581 7.86 47.64 8.1 47.64 8.34C47.64 8.58 47.46 8.94 46.98 9.36C46.44 9.78 45.6 10.2 44.52 10.62C42.42 11.34 39.36 11.82 36 11.82C32.64 11.82 29.58 11.34 27.479 10.62C26.4 10.2 25.559 9.78 25.019 9.36C24.54 8.94 24.36 8.58 24.36 8.34C24.36 8.1 24.42 7.86 24.719 7.56C24.959 7.26 25.439 6.96 26.039 6.66C27.299 6 29.159 5.46 31.499 5.16C31.859 5.1 32.099 4.8 32.159 4.38C32.281 2.94 33.901 1.62 36.001 1.62ZM41.761 3.72C49.921 4.14 57.061 5.34 62.161 7.02C64.86 7.92 66.961 8.94 68.4 10.02C69.78 11.1 70.38 12.12 70.38 13.08C70.38 14.16 69.66 15.3 67.98 16.44C66.3 17.58 63.78 18.66 60.661 19.619C54.721 21.359 46.56 22.439 37.501 22.56C37.44 22.56 37.44 22.56 37.381 22.56C37.32 22.56 37.32 22.56 37.261 22.56C36.841 22.56 36.481 22.56 36.061 22.56C36.001 22.56 36.001 22.56 36.001 22.56C35.581 22.56 35.161 22.56 34.681 22.56C34.621 22.56 34.621 22.56 34.561 22.56C25.441 22.439 17.282 21.359 11.341 19.619C8.221 18.66 5.701 17.579 4.021 16.44C2.341 15.3 1.622 14.16 1.622 13.08C1.622 12.12 2.222 11.1 3.601 10.02C5.041 8.94 7.141 7.92 9.841 7.02C14.942 5.34 22.081 4.14 30.241 3.78C28.261 4.08 26.581 4.56 25.321 5.22C24.601 5.58 24.001 6 23.521 6.54C23.042 7.02 22.742 7.62 22.742 8.34C22.742 9.24 23.282 10.02 24.061 10.62C24.782 11.22 25.742 11.7 26.941 12.12C29.341 12.9 32.521 13.44 36.002 13.44C39.481 13.44 42.662 12.9 45.062 12.12C46.262 11.7 47.222 11.22 47.942 10.62C48.722 10.02 49.262 9.24 49.262 8.34C49.262 7.62 48.962 7.02 48.482 6.54C48.003 6 47.402 5.58 46.682 5.22C45.421 4.56 43.74 4.08 41.761 3.72ZM35.401 24.18C35.581 24.18 35.76 24.18 35.94 24.18H36.001C36.181 24.18 36.361 24.18 36.601 24.18V33.959C36.601 34.32 36.362 34.561 36.001 34.561C35.64 34.561 35.401 34.321 35.401 33.959V24.18Z" fill="black"/>
</svg>
