<svg width="376" height="367" viewBox="0 0 376 367" fill="none" xmlns="http://www.w3.org/2000/svg">
<path fill-rule="evenodd" clip-rule="evenodd" d="M168.229 18.2106C134.396 21.4356 103.511 34.8456 78.677 55.3386L77.046 53.7076C70.831 47.4936 60.741 47.4936 54.527 53.7076C48.312 59.9216 48.312 70.0126 54.527 76.2266L56.158 77.8577C35.667 102.696 22.259 133.577 19.03 167.41H16.757C7.96898 167.41 0.833984 174.545 0.833984 183.333C0.833984 192.122 7.96898 199.257 16.757 199.257H19.03C22.255 233.089 35.665 263.974 56.158 288.809L54.527 290.44C48.312 296.654 48.312 306.745 54.527 312.959C60.741 319.173 70.831 319.173 77.046 312.959L78.677 311.328C103.515 331.819 134.396 345.226 168.229 348.455V350.728C168.229 359.516 175.364 366.651 184.152 366.651C192.941 366.651 200.076 359.516 200.076 350.728V348.458C233.914 345.23 264.802 331.818 289.627 311.328L291.259 312.959C297.473 319.173 307.563 319.173 313.778 312.959C319.992 306.745 319.992 296.654 313.778 290.44L312.146 288.808C317.047 282.87 321.543 276.584 325.592 269.995C339.343 273.895 350.771 277.09 357.981 279.022C365.545 281.049 373.321 276.56 375.347 268.995C377.374 261.431 372.885 253.656 365.321 251.629C359.098 249.962 349.684 247.538 338.309 244.658C343.997 230.389 347.76 215.149 349.275 199.257H351.547C360.335 199.257 367.47 192.122 367.47 183.333C367.47 174.545 360.335 167.41 351.547 167.41H349.275C347.76 151.518 343.997 136.277 338.309 122.009C349.684 119.129 359.098 116.705 365.321 115.038C372.885 113.011 377.374 105.236 375.347 97.6706C373.321 90.1066 365.545 85.6176 357.981 87.6446C350.771 89.5766 339.343 92.7706 325.592 96.6716C321.545 90.0836 317.049 83.7987 312.146 77.8577L313.778 76.2266C319.992 70.0126 319.992 59.9216 313.778 53.7076C307.563 47.4936 297.473 47.4936 291.259 53.7076L289.627 55.3386C264.795 34.8466 233.911 21.4376 200.076 18.2086V15.9386C200.076 7.14965 192.941 0.0146484 184.152 0.0146484C175.364 0.0146484 168.229 7.14965 168.229 15.9386V18.2106ZM179.151 349.137V350.728C179.151 353.488 181.392 355.729 184.152 355.729C186.912 355.729 189.153 353.488 189.153 350.728V349.139C187.495 349.19 185.827 349.214 184.152 349.214C182.477 349.214 180.807 349.19 179.151 349.137ZM314.647 99.7816C287.085 56.8476 238.918 28.3736 184.152 28.3736C98.628 28.3736 29.193 97.8086 29.193 183.333C29.193 268.857 98.628 338.292 184.152 338.292C238.918 338.292 287.085 309.819 314.647 266.885L304.574 264.007C278.55 302.764 234.308 328.29 184.152 328.29C104.148 328.29 39.195 263.337 39.195 183.333C39.195 103.33 104.148 38.3766 184.152 38.3766C234.308 38.3766 278.55 63.9027 304.574 102.66L314.647 99.7816ZM293.49 105.836C269.197 71.6336 229.263 49.2987 184.152 49.2987C110.177 49.2987 50.118 109.358 50.118 183.333C50.118 257.309 110.177 317.368 184.152 317.368C229.263 317.368 269.197 295.033 293.49 260.831C245.769 247.142 189.536 230.767 174.543 226.367C172.267 228.262 169.537 229.092 166.588 229.242C161.74 229.488 155.997 227.277 151.707 225.902C146.861 224.349 140.401 221.003 136.45 216.86C132.776 213.005 131.142 208.461 132.367 203.889C133.592 199.317 137.279 196.198 142.389 194.698C147.882 193.084 155.149 193.417 160.122 194.495C164.525 195.45 170.604 196.406 174.68 199.043C177.159 200.648 179.108 202.731 180.132 205.511C196.026 209.368 257.623 224.46 307.076 236.807C314.224 220.424 318.187 202.338 318.187 183.333C318.187 164.329 314.224 146.243 307.076 129.86C257.621 142.208 196.031 157.297 180.132 161.156C179.108 163.935 177.159 166.019 174.68 167.623C170.604 170.261 164.525 171.217 160.122 172.172C155.149 173.25 147.882 173.582 142.389 171.969C137.279 170.468 133.592 167.349 132.367 162.778C131.142 158.206 132.776 153.661 136.45 149.807C140.401 145.663 146.861 142.317 151.707 140.765C155.997 139.39 161.74 137.179 166.588 137.425C169.537 137.575 172.267 138.405 174.543 140.3C189.535 135.9 245.772 119.524 293.49 105.836ZM63.398 297.015L62.25 298.163C60.298 300.115 60.298 303.284 62.25 305.236C64.202 307.187 67.371 307.187 69.322 305.236L70.471 304.087C68.045 301.802 65.688 299.445 63.398 297.015ZM304.908 297.017C302.621 299.446 300.261 301.805 297.836 304.089L298.982 305.236C300.934 307.187 304.103 307.187 306.054 305.236C308.006 303.284 308.006 300.115 306.054 298.163L304.908 297.017ZM182.753 217.39C203.87 223.565 353.023 266.386 360.808 268.472C362.546 268.937 364.332 267.906 364.797 266.169C365.263 264.431 364.232 262.645 362.494 262.179C355.317 260.256 204.749 222.752 182.753 217.39ZM327.618 124.709L317.808 127.174C325.086 144.449 329.109 163.425 329.109 183.333C329.109 203.242 325.086 222.218 317.808 239.493L327.618 241.958C335.029 223.869 339.111 204.074 339.111 183.333C339.111 162.593 335.029 142.798 327.618 124.709ZM142.917 206.716C143.062 206.173 143.597 205.939 144.126 205.682C145.037 205.24 146.111 204.967 147.247 204.781C150.784 204.203 154.862 204.531 157.807 205.169C160.689 205.794 164.535 206.243 167.584 207.597C168.882 208.174 170.091 208.929 169.989 210.618C169.924 211.699 169.701 212.771 169.421 213.818C169.14 214.864 168.798 215.904 168.313 216.873C167.556 218.386 166.133 218.436 164.72 218.286C161.402 217.935 157.847 216.4 155.039 215.5C152.169 214.581 148.473 212.826 145.699 210.557C144.808 209.828 144.015 209.054 143.447 208.215C143.118 207.729 142.771 207.258 142.917 206.716ZM349.957 178.332C350.009 179.994 350.033 181.661 350.033 183.333C350.033 185.006 350.009 186.672 349.957 188.334H351.547C354.307 188.334 356.548 186.093 356.548 183.333C356.548 180.573 354.307 178.332 351.547 178.332H349.957ZM18.348 178.332H16.757C13.997 178.332 11.756 180.573 11.756 183.333C11.756 186.093 13.997 188.334 16.757 188.334H18.348C18.296 186.678 18.271 185.009 18.271 183.333C18.271 181.658 18.296 179.988 18.348 178.332ZM142.917 159.951C142.771 159.408 143.118 158.938 143.447 158.451C144.015 157.613 144.808 156.839 145.699 156.11C148.473 153.841 152.169 152.086 155.039 151.166C157.847 150.267 161.402 148.732 164.72 148.381C166.133 148.231 167.556 148.28 168.313 149.794C168.798 150.763 169.14 151.803 169.421 152.849C169.701 153.895 169.924 154.968 169.989 156.049C170.091 157.738 168.882 158.493 167.584 159.07C164.535 160.424 160.689 160.872 157.807 161.497C154.862 162.136 150.784 162.464 147.247 161.886C146.111 161.7 145.037 161.427 144.126 160.984C143.597 160.728 143.062 160.493 142.917 159.951ZM182.753 149.277C204.749 143.915 355.317 106.411 362.494 104.488C364.232 104.022 365.263 102.236 364.797 100.498C364.332 98.7607 362.546 97.7286 360.808 98.1946C353.023 100.281 203.879 143.099 182.753 149.277ZM70.471 62.5787L69.322 61.4306C67.371 59.4786 64.202 59.4786 62.25 61.4306C60.298 63.3826 60.298 66.5516 62.25 68.5036L63.398 69.6516C65.683 67.2256 68.04 64.8687 70.471 62.5787ZM304.908 69.6497L306.054 68.5036C308.006 66.5516 308.006 63.3826 306.054 61.4306C304.103 59.4786 300.934 59.4786 298.982 61.4306L297.836 62.5767C300.263 64.8637 302.622 67.2217 304.908 69.6497ZM189.153 17.5276V15.9386C189.153 13.1776 186.912 10.9376 184.152 10.9376C181.392 10.9376 179.151 13.1776 179.151 15.9386V17.5286C180.807 17.4766 182.477 17.4516 184.152 17.4516C185.827 17.4516 187.495 17.4766 189.153 17.5276Z" fill="black"/>
</svg>
