<svg width="48" height="48" viewBox="0 0 48 48" fill="none" xmlns="http://www.w3.org/2000/svg">
<path d="M24 0C11.3 0 1.2 3.9 0.1 9C0 9.2 0 9.3 0 9.5V38C0 43.6 10.5 48 24 48C37.5 48 48 43.6 48 38C48 38 48 10.3 48 10C48 4.4 37.5 0 24 0ZM46 31.1L36.4 25.2C40.6 24.2 43.9 22.6 45.9 20.7L46 31.1ZM34 26.1L45.1 33C42.6 36.1 34.6 38.9 24 38.9C23.6 38.9 23.2 38.9 22.8 38.9L34 26.1ZM20.8 38.2L11.3 25.1C15 26 19.3 26.6 24 26.6C26.6 26.6 29 26.4 31.3 26.1L20.8 38.2ZM24 2C36.1 2 44.8 5.7 45.9 9.3C45.9 9.4 45.9 9.4 45.9 9.5V10.8C44.7 14.3 36.1 18 24 18C11 18 2 13.8 2 10C2 6.2 11 2 24 2ZM2 14C5.7 17.6 14 20 24 20C33.9 20 42.1 17.6 45.9 14.2V17.4C44.9 21 36.2 24.7 24 24.7C11 24.7 2 20.5 2 16.7V14ZM2 20.6C3.2 21.7 4.9 22.8 6.9 23.6L2 27V20.6ZM2 29.4L8.7 24.9L18.7 38.6C8.6 37.7 2 34.1 2 30.9V29.4ZM24 46C11 46 2 41.8 2 38V35C5.7 38.5 14 40.9 24 40.9C34 40.9 42.3 38.5 46 35V38C46 41.8 37 46 24 46Z" fill="black"/>
</svg>
