<svg width="64" height="64" viewBox="0 0 64 64" fill="none" xmlns="http://www.w3.org/2000/svg">
<path d="M32 0C14.3506 0 0 14.3507 0 32C0 49.6492 14.3506 64 32 64C49.6494 64 64 49.6492 64 32C64 14.3507 49.6494 0 32 0ZM32 4C47.4876 4 60 16.5124 60 32C60 47.4874 47.4876 60 32 60C16.5124 60 4 47.4874 4 32C4 16.5124 16.5124 4 32 4ZM32 11C30.8954 11 30 11.8954 30 13V32C30 32.5523 30.2318 33.0443 30.5938 33.4062L42.5938 45.4375C43.3748 46.2186 44.6564 46.2186 45.4375 45.4375C46.2186 44.6564 46.2186 43.3748 45.4375 42.5937L34 31.1875V13C34 11.8954 33.1046 11 32 11Z" fill="black"/>
</svg>
