<svg width="68" height="92" viewBox="0 0 68 92" fill="none" xmlns="http://www.w3.org/2000/svg">
<path d="M39.902 91.363C39.0973 91.363 38.3317 90.945 37.902 90.238C37.3786 89.3747 37.4645 88.2732 38.1169 87.5036L41.1637 83.9098C43.0348 81.7067 44.2263 78.6364 44.5193 75.2653C45.0544 69.1364 41.1834 63.7773 37.4529 60.1093C36.3591 64.5429 33.5467 67.664 31.5076 69.9218C31.0271 70.457 30.6208 70.9062 30.2458 71.3515C27.0778 75.1249 25.2575 78.1406 28.7106 85.3865L29.9177 87.9295C30.2848 88.699 30.2028 89.6053 29.7067 90.2967C29.2106 90.9881 28.3747 91.367 27.5387 91.2655L24.7418 90.9491C18.3199 90.2264 12.5618 87.4529 8.08581 82.9256C3.50381 78.2928 0.913911 72.3207 0.980311 66.5387C1.04281 60.7887 3.04671 56.4686 4.81231 52.6556C7.03891 47.8587 8.50761 44.6947 5.90611 40.3356L4.14831 37.3903C3.67956 36.6013 3.71472 35.613 4.23425 34.8551C4.75769 34.1012 5.66785 33.7184 6.57805 33.8825L9.95305 34.4919C14.8436 35.3747 18.9999 38.6521 21.496 43.3278C22.0429 41.0426 22.3046 38.0036 21.8242 34.0544C20.6719 24.5232 21.1914 12.3514 35.5902 2.75737L38.1879 1.02687C38.9262 0.534679 39.8754 0.503429 40.6488 0.940931C41.4183 1.38234 41.8754 2.21823 41.8285 3.10503L41.6566 6.22223C41.0785 16.8272 43.8285 24.4682 51.1566 32.5892C57.4222 39.5345 63.8946 46.7142 66.2306 57.5622C68.0783 66.156 66.6368 73.8712 62.047 79.8712C58.1954 84.9103 52.1447 88.5939 45.008 90.2422L40.4182 91.3008C40.2541 91.3438 40.0778 91.363 39.902 91.363ZM10.781 39.543C13.3982 45.293 11.2029 50.031 9.07011 54.629C7.34741 58.3438 5.71851 61.8517 5.66781 66.594C5.61703 71.1331 7.71081 75.8831 11.4178 79.633C14.8084 83.0588 19.0975 85.2775 23.8868 86.0978C20.1446 77.2423 23.1837 72.4648 26.6563 68.3358C27.0626 67.8514 27.504 67.3631 27.9571 66.8592C30.6055 63.9217 33.5352 60.6756 33.1915 55.4682C33.1329 54.5463 33.6173 53.6752 34.4376 53.2416C35.254 52.8119 36.2501 52.8979 36.9767 53.4721C41.9181 57.3549 50.0787 65.4021 49.1797 75.6711C48.875 79.1594 47.793 82.4328 46.082 85.1086C51.2187 83.5305 55.5117 80.7063 58.324 77.0305C62.0506 72.1555 63.199 65.7645 61.6443 58.5535C59.574 48.9285 53.5232 42.2215 47.6713 35.7335C39.7846 26.9874 36.6053 18.7255 36.9093 7.54948C25.9753 15.4636 25.4093 24.6825 26.4753 33.4945C27.5847 42.6664 25.2761 48.0605 23.1433 50.9745C22.5925 51.7245 21.6511 52.0722 20.7488 51.8768C19.8426 51.6776 19.1394 50.9588 18.9558 50.0487C18.1706 46.0917 15.5691 41.2323 10.78 39.5407L10.781 39.543Z" fill="black"/>
</svg>
