<svg width="262" height="235" viewBox="0 0 262 235" fill="none" xmlns="http://www.w3.org/2000/svg">
<path d="M141.4 72.4077V19.1077C141.4 11.6077 137.2 5.00773 130.6 1.80773C124 -1.29227 116.4 -0.39226 110.6 4.40774L43.3 63.0077H18C8.1 63.0077 0 71.0077 0 80.9077V153.208C0 163.108 8 171.208 18 171.208H43.4L110.6 229.808L110.8 229.908C114.3 232.708 118.5 234.208 122.7 234.208C125.4 234.208 128.1 233.608 130.7 232.408C137.3 229.208 141.5 222.608 141.5 215.108V161.808C163.5 158.808 180.6 139.908 180.6 117.108C180.5 94.2077 163.4 75.3077 141.4 72.4077ZM39.6 159.208H18C14.7 159.208 12 156.508 12 153.208V80.9077C12 77.6077 14.7 75.0077 18 75.0077H39.6V159.208ZM129.4 215.008C129.4 217.908 127.9 220.308 125.4 221.508C124.3 222.008 121.4 223.008 118.4 220.608L51.6 162.408V71.7077L118.3 13.5077C121.4 11.0077 124.3 12.0077 125.4 12.5077C127.9 13.7077 129.4 16.1077 129.4 19.0077V215.008ZM141.4 149.608V84.5077C156.8 87.3077 168.5 100.808 168.5 117.008C168.5 133.208 156.7 146.808 141.4 149.608Z" fill="black"/>
<path d="M261.998 117.009C261.998 120.309 259.298 123.009 255.998 123.009H236.198V142.809C236.198 146.109 233.498 148.809 230.198 148.809C226.898 148.809 224.198 146.109 224.198 142.809V123.009H204.398C201.098 123.009 198.398 120.309 198.398 117.009C198.398 113.709 201.098 111.009 204.398 111.009H224.198V91.209C224.198 87.909 226.898 85.209 230.198 85.209C233.498 85.209 236.198 87.909 236.198 91.209V111.009H255.998C259.298 111.009 261.998 113.709 261.998 117.009Z" fill="black"/>
</svg>
