<svg width="43" height="64" viewBox="0 0 43 64" fill="none" xmlns="http://www.w3.org/2000/svg">
<path d="M21.5 0C9.60598 0 0 10.0286 0 22.2414C0 26.8614 1.74232 32.343 3.86911 35.9569L19.577 62.6465C19.7727 62.9831 20.0533 63.2624 20.3907 63.4566C20.7282 63.6507 21.1107 63.7529 21.5 63.7529C21.8893 63.7529 22.2718 63.6507 22.6093 63.4566C22.9467 63.2624 23.2273 62.9831 23.423 62.6465L39.1309 35.9569C41.2577 32.3429 43 26.8614 43 22.2414C43 10.0286 33.394 0 21.5 0ZM21.5 4.44828C30.8975 4.44828 38.5517 12.3437 38.5517 22.2414C38.5517 25.5901 36.8811 30.9973 35.2851 33.7096L21.5 57.1325L7.71494 33.7096C6.11897 30.9973 4.44828 25.59 4.44828 22.2414C4.44828 12.3437 12.1025 4.44828 21.5 4.44828ZM21.5 10.3793C15.3846 10.3793 10.3793 15.3846 10.3793 21.5C10.3793 27.6153 15.3845 32.6207 21.5 32.6207C27.6155 32.6207 32.6207 27.6153 32.6207 21.5C32.6207 15.3846 27.6154 10.3793 21.5 10.3793ZM21.5 14.8276C25.2114 14.8276 28.1724 17.7886 28.1724 21.5C28.1724 25.2113 25.2113 28.1724 21.5 28.1724C17.7887 28.1724 14.8276 25.2113 14.8276 21.5C14.8276 17.7886 17.7886 14.8276 21.5 14.8276Z" fill="#666"/>
</svg>
