<svg width="130" height="132" viewBox="0 0 130 132" fill="none" xmlns="http://www.w3.org/2000/svg">
<path d="M17.51 105.049C13.93 105.049 11.01 102.129 11.01 98.5488V32.4788C11.01 28.8988 13.93 25.9788 17.51 25.9788H75.03L69.16 31.9888C67.04 34.1588 67.08 37.6488 69.25 39.7688C70.32 40.8088 71.71 41.3388 73.09 41.3388C74.47 41.3388 75.95 40.7888 77.02 39.6788L92.02 24.3288C92.02 24.3288 92.04 24.2988 92.05 24.2888C92.28 24.0488 92.5 23.7788 92.68 23.4988C92.7 23.4688 92.72 23.4388 92.74 23.3988C92.91 23.1288 93.06 22.8488 93.18 22.5488C93.19 22.5188 93.2 22.4787 93.22 22.4487C93.33 22.1487 93.42 21.8488 93.48 21.5288C93.48 21.4988 93.48 21.4688 93.49 21.4388C93.54 21.1288 93.58 20.8088 93.58 20.4888V20.4688C93.58 20.4688 93.58 20.4388 93.58 20.4188C93.58 20.0788 93.54 19.7488 93.48 19.4288V19.3988C93.41 19.0688 93.31 18.7488 93.19 18.4388C93.19 18.4188 93.18 18.3987 93.17 18.3787C93.04 18.0687 92.88 17.7688 92.7 17.4888C92.69 17.4688 92.68 17.4488 92.66 17.4288C92.46 17.1288 92.23 16.8488 91.97 16.5888L76.97 1.60875C74.82 -0.541248 71.34 -0.531248 69.19 1.60875C67.04 3.75875 67.05 7.23875 69.19 9.38875L74.79 14.9788H17.5C7.85 14.9788 0 22.8288 0 32.4788V98.5587C0 108.209 7.85 116.059 17.5 116.059C20.54 116.059 23 113.599 23 110.559C23 107.519 20.54 105.059 17.5 105.059L17.51 105.049Z" fill="black"/>
<path d="M111.509 14.9785C108.469 14.9785 106.009 17.4385 106.009 20.4785C106.009 23.5185 108.469 25.9785 111.509 25.9785C115.089 25.9785 118.009 28.8985 118.009 32.4785V98.5585C118.009 102.139 115.089 105.059 111.509 105.059H53.749L59.439 99.2385C61.559 97.0685 61.519 93.5785 59.349 91.4585C57.179 89.3385 53.699 89.3785 51.569 91.5485L36.569 106.899C34.459 109.059 34.489 112.509 36.619 114.639L51.619 129.619C52.689 130.689 54.099 131.229 55.509 131.229C56.919 131.229 58.329 130.689 59.399 129.619C61.549 127.469 61.539 123.989 59.399 121.839L53.619 116.069H111.519C121.169 116.069 129.019 108.219 129.019 98.5685V32.4785C129.019 22.8285 121.169 14.9785 111.519 14.9785H111.509Z" fill="black"/>
</svg>
