<svg xmlns="http://www.w3.org/2000/svg" xmlns:xlink="http://www.w3.org/1999/xlink" version="1.1" x="0px" y="0px" viewBox="0 0 512 640" style="enable-background:new 0 0 512 512;" xml:space="preserve"><g><path d="M270.2,215.1v-53.3c0-7.5-4.2-14.2-10.8-17.3c-6.6-3.1-14.2-2.2-20,2.6l-67.2,58.6h-25.4c-9.9,0-18,8.1-18,18V296   c0,9.9,8,17.9,18,17.9h25.3l67.3,58.6l0.2,0.2c3.5,2.8,7.7,4.3,11.9,4.3c2.7,0,5.4-0.6,8-1.8c6.6-3.2,10.8-9.8,10.8-17.3v-53.3   c22-3,39.1-21.8,39.1-44.7C309.3,237,292.2,218,270.2,215.1z M168.4,301.9h-21.6c-3.3,0-6-2.6-6-5.9v-72.3c0-3.3,2.7-6,6-6h21.6   V301.9z M258.2,357.8c0,2.9-1.5,5.3-4,6.5c-1.1,0.5-4,1.5-7-0.9l-66.8-58.2v-90.7l66.7-58.2c3.1-2.5,6-1.5,7.1-1   c2.5,1.2,4,3.6,4,6.5V357.8z M270.2,292.3v-65.1c15.4,2.8,27.1,16.4,27.1,32.6S285.5,289.5,270.2,292.3z"/></g><path d="M384.8,265.8h-51.6c-3.3,0-6-2.7-6-6c0-3.3,2.7-6,6-6h51.6c3.3,0,6,2.7,6,6C390.8,263.1,388.1,265.8,384.8,265.8z"/><text x="0" y="527" fill="#000000" font-size="5px" font-weight="bold" font-family="'Helvetica Neue', Helvetica, Arial-Unicode, Arial, Sans-serif">Created by CreativeCube</text><text x="0" y="532" fill="#000000" font-size="5px" font-weight="bold" font-family="'Helvetica Neue', Helvetica, Arial-Unicode, Arial, Sans-serif">from the Noun Project</text></svg>