<svg width="167" height="180" viewBox="0 0 167 180" fill="none" xmlns="http://www.w3.org/2000/svg">
<path d="M54.2 179.4H16.2C7.3 179.4 0 172.1 0 163.2V16.2C0 7.3 7.3 0 16.2 0H54.2C63.1 0 70.4 7.3 70.4 16.2V163.2C70.4 172.1 63.1 179.4 54.2 179.4ZM16.2 12C13.9 12 12 13.9 12 16.2V163.2C12 165.5 13.9 167.4 16.2 167.4H54.2C56.5 167.4 58.4 165.5 58.4 163.2V16.2C58.4 13.9 56.5 12 54.2 12H16.2Z" fill="#fafafa"/>
<path d="M150.501 179.4H112.501C103.601 179.4 96.3008 172.1 96.3008 163.2V16.2C96.3008 7.3 103.601 0 112.501 0H150.501C159.401 0 166.701 7.3 166.701 16.2V163.2C166.701 172.1 159.401 179.4 150.501 179.4ZM112.501 12C110.201 12 108.301 13.9 108.301 16.2V163.2C108.301 165.5 110.201 167.4 112.501 167.4H150.501C152.801 167.4 154.701 165.5 154.701 163.2V16.2C154.701 13.9 152.801 12 150.501 12H112.501Z" fill="#fafafa"/>
</svg>
