<svg width="168" height="180" viewBox="0 0 168 180" fill="none" xmlns="http://www.w3.org/2000/svg">
<path d="M14.5008 179.6C12.0008 179.6 9.50077 178.9 7.40077 177.7C3.30077 175.3 0.800781 171 0.800781 166.4V13.7998C0.800781 9.09977 3.20077 4.89977 7.40077 2.49977C11.6008 -0.000233054 16.9008 -0.10023 21.3008 2.29977L160.601 78.4998C165.001 80.8998 167.601 85.1998 167.601 90.0998C167.601 94.9998 165.001 99.2998 160.601 101.7L21.3008 177.9C19.1008 179 16.8008 179.6 14.5008 179.6ZM14.5008 12.4998C14.0008 12.4998 13.6008 12.6998 13.5008 12.7998C13.1008 13.0998 12.8008 13.3998 12.8008 13.7998V166.3C12.8008 166.7 13.0008 167.1 13.5008 167.3C13.7008 167.4 14.6008 167.8 15.5008 167.3L154.801 91.0998C155.301 90.7998 155.501 90.4998 155.501 89.9998C155.501 89.5998 155.301 89.1998 154.801 88.9998L15.5008 12.7998C15.1008 12.5998 14.8008 12.4998 14.5008 12.4998Z" fill="#fafafa"/>
</svg>
