<svg width="33" height="33" viewBox="0 0 33 33" fill="none" xmlns="http://www.w3.org/2000/svg">
<path d="M18.4101 13.8504V2.24835V2.25226C18.4297 1.11556 17.5898 0.150658 16.4648 0.0100576C15.8594 -0.0485364 15.2578 0.150679 14.8086 0.560839C14.3555 0.970999 14.0977 1.54912 14.0977 2.15854V13.8495C14.0977 13.9159 14.0703 13.9784 14.0235 14.0253C13.9766 14.0683 13.9102 14.0956 13.8477 14.0956H2.24569C1.11289 14.0761 0.151889 14.9159 0.0112889 16.037C-0.0512111 16.6425 0.148009 17.2479 0.554259 17.6972C0.964419 18.1503 1.54645 18.4082 2.15196 18.4043H13.847C13.9837 18.4043 14.093 18.5175 14.093 18.6543V30.2563C14.0735 31.3891 14.9134 32.354 16.0422 32.4946C16.6477 32.5532 17.2492 32.3539 17.6984 31.9477C18.1516 31.5375 18.4094 30.9594 18.4094 30.35V18.659C18.4094 18.5223 18.5188 18.409 18.6555 18.409H30.2575C31.3903 18.4285 32.3552 17.5926 32.4997 16.4676C32.5583 15.8582 32.3591 15.2567 31.9489 14.8035C31.5387 14.3503 30.9567 14.0925 30.3473 14.0964H18.6443C18.5154 14.0886 18.4101 13.9832 18.4101 13.8504Z" fill="black"/>
</svg>
